<svg width="31" height="30" viewBox="0 0 31 30" fill="none" xmlns="http://www.w3.org/2000/svg">
<circle cx="15.75" cy="15" r="15" fill="#242424"/>
<path d="M21.7479 14.0153C21.6261 14.0266 21.5039 14.0325 21.3816 14.0331C20.7211 14.0332 20.071 13.8759 19.49 13.5756C18.909 13.2753 18.4153 12.8413 18.0535 12.3129V18.1706C18.0535 19.0268 17.788 19.8639 17.2906 20.5759C16.7932 21.2878 16.0862 21.8428 15.2591 22.1704C14.4319 22.4981 13.5217 22.5839 12.6436 22.4168C11.7655 22.2498 10.9589 21.8374 10.3259 21.2319C9.69278 20.6265 9.26165 19.855 9.08698 19.0152C8.91232 18.1754 9.00196 17.3049 9.34458 16.5138C9.6872 15.7227 10.2674 15.0465 11.0118 14.5708C11.7563 14.0951 12.6315 13.8411 13.5268 13.8411C13.6213 13.8411 13.7136 13.8493 13.8065 13.8548V15.9883C13.7136 15.9777 13.6223 15.9614 13.5268 15.9614C12.914 15.9614 12.3264 16.1942 11.8931 16.6086C11.4598 17.023 11.2164 17.585 11.2164 18.1711C11.2164 18.7571 11.4598 19.3191 11.8931 19.7335C12.3264 20.1479 12.914 20.3807 13.5268 20.3807C14.803 20.3807 15.93 19.4191 15.93 18.1985L15.9523 8.25H18.0864C18.1839 9.13685 18.6043 9.9627 19.274 10.5832C19.9437 11.2036 20.8201 11.5792 21.75 11.6442V14.0153" fill="white"/>
</svg>
