<svg width="31" height="30" viewBox="0 0 31 30" fill="none" xmlns="http://www.w3.org/2000/svg">
<circle cx="15.25" cy="15" r="15" fill="#242424"/>
<path d="M23.5 9.93724C22.8932 10.2229 22.2414 10.416 21.5561 10.5032C22.2552 10.0585 22.7915 9.35266 23.0444 8.51252C22.3903 8.92489 21.6658 9.22448 20.8949 9.3851C20.2772 8.68706 19.3979 8.25 18.4241 8.25C16.5551 8.25 15.0393 9.86078 15.0393 11.8484C15.0394 12.1239 15.0686 12.3984 15.1265 12.667C12.312 12.5163 9.81879 11.0839 8.14888 8.9079C7.85824 9.44071 7.69107 10.0585 7.69107 10.7164C7.69107 11.9642 8.28916 13.0661 9.19675 13.7109C8.65921 13.6927 8.13354 13.5384 7.66346 13.2607V13.3071C7.66346 15.0499 8.82979 16.5039 10.3791 16.8345C10.0884 16.9178 9.78854 16.9599 9.48743 16.9595C9.2736 16.9597 9.06024 16.9385 8.85015 16.8962C9.28107 18.3248 10.531 19.3657 12.0127 19.3935C10.8536 20.3587 9.3937 20.934 7.80807 20.934C7.53484 20.934 7.26524 20.917 7 20.8838C8.49843 21.9055 10.2773 22.5 12.1885 22.5C18.4161 22.5 21.8206 17.019 21.8206 12.2654C21.8206 12.111 21.817 11.955 21.8104 11.8005C22.4717 11.2924 23.0458 10.66 23.4985 9.93954L23.5 9.93724Z" fill="white"/>
</svg>
