<svg width="31" height="30" viewBox="0 0 31 30" fill="none" xmlns="http://www.w3.org/2000/svg">
<circle cx="15.5" cy="15" r="15" fill="#242424"/>
<path d="M11.9732 22.5H9.03262V13H11.9732V22.5ZM10.4889 11.7559C9.52853 11.7559 8.75 10.971 8.75 10.003C8.75 9.03482 9.52864 8.25 10.4889 8.25C11.4491 8.25 12.2276 9.03482 12.2276 10.003C12.2277 10.9711 11.4492 11.7559 10.4889 11.7559ZM22.9928 22.5H20.0665V17.5133C20.0665 16.1456 19.547 15.3821 18.4655 15.3821C17.2885 15.3821 16.6736 16.1773 16.6736 17.5133V22.5H13.8533V13H16.6736V14.2795C16.6736 14.2795 17.5219 12.7102 19.5363 12.7102C21.5508 12.7102 22.9928 13.9402 22.9928 16.4847L22.9928 22.5Z" fill="white"/>
</svg>
